<svg xmlns="http://www.w3.org/2000/svg" xmlns:xlink="http://www.w3.org/1999/xlink" width="500" zoomAndPan="magnify" viewBox="0 0 375 374.999991" height="500" preserveAspectRatio="xMidYMid meet" version="1.0"><defs><g/><clipPath id="c25bdea750"><path d="M 151.769531 114.46875 L 369.140625 114.46875 L 369.140625 260.523438 L 151.769531 260.523438 Z M 151.769531 114.46875 " clip-rule="nonzero"/></clipPath><clipPath id="18b8060dd7"><path d="M 151.769531 187.496094 L 151.769531 114.46875 L 369.003906 187.496094 L 369.003906 260.523438 Z M 151.769531 187.496094 " clip-rule="nonzero"/></clipPath><clipPath id="7ee3f24c34"><path d="M 0.769531 0.46875 L 218.121094 0.46875 L 218.121094 146.523438 L 0.769531 146.523438 Z M 0.769531 0.46875 " clip-rule="nonzero"/></clipPath><clipPath id="3d9f02eca7"><path d="M 0.769531 73.496094 L 0.769531 0.46875 L 218.003906 73.496094 L 218.003906 146.523438 Z M 0.769531 73.496094 " clip-rule="nonzero"/></clipPath><clipPath id="9cc4f826db"><rect x="0" width="219" y="0" height="147"/></clipPath><clipPath id="3aaae3d649"><path d="M 94 114.46875 L 311.371094 114.46875 L 311.371094 260.523438 L 94 260.523438 Z M 94 114.46875 " clip-rule="nonzero"/></clipPath><clipPath id="cac3af7671"><path d="M 94 187.496094 L 94 114.46875 L 311.234375 187.496094 L 311.234375 260.523438 Z M 94 187.496094 " clip-rule="nonzero"/></clipPath><clipPath id="4f743f37e0"><path d="M 0 0.46875 L 217.28125 0.46875 L 217.28125 146.523438 L 0 146.523438 Z M 0 0.46875 " clip-rule="nonzero"/></clipPath><clipPath id="19bee5ac0d"><path d="M 0 73.496094 L 0 0.46875 L 217.234375 73.496094 L 217.234375 146.523438 Z M 0 73.496094 " clip-rule="nonzero"/></clipPath><clipPath id="0a72d834a7"><rect x="0" width="218" y="0" height="147"/></clipPath><clipPath id="40c4bbbd29"><path d="M 32.046875 114.46875 L 249.421875 114.46875 L 249.421875 260.523438 L 32.046875 260.523438 Z M 32.046875 114.46875 " clip-rule="nonzero"/></clipPath><clipPath id="dc49479e2b"><path d="M 32.046875 187.496094 L 32.046875 114.46875 L 249.28125 187.496094 L 249.28125 260.523438 Z M 32.046875 187.496094 " clip-rule="nonzero"/></clipPath><clipPath id="99a329336d"><path d="M 0.046875 0.46875 L 217.359375 0.46875 L 217.359375 146.523438 L 0.046875 146.523438 Z M 0.046875 0.46875 " clip-rule="nonzero"/></clipPath><clipPath id="859cda029c"><path d="M 0.046875 73.496094 L 0.046875 0.46875 L 217.28125 73.496094 L 217.28125 146.523438 Z M 0.046875 73.496094 " clip-rule="nonzero"/></clipPath><clipPath id="80aeaa0a86"><rect x="0" width="218" y="0" height="147"/></clipPath></defs><g clip-path="url(#c25bdea750)"><g clip-path="url(#18b8060dd7)"><g transform="matrix(1, 0, 0, 1, 151, 114)"><g clip-path="url(#9cc4f826db)"><g clip-path="url(#7ee3f24c34)"><g clip-path="url(#3d9f02eca7)"><path fill="#fdbe43" d="M 0.769531 146.523438 L 0.769531 0.46875 L 218.140625 0.46875 L 218.140625 146.523438 Z M 0.769531 146.523438 " fill-opacity="1" fill-rule="nonzero"/></g></g></g></g></g></g><g clip-path="url(#3aaae3d649)"><g clip-path="url(#cac3af7671)"><g transform="matrix(1, 0, 0, 1, 94, 114)"><g clip-path="url(#0a72d834a7)"><g clip-path="url(#4f743f37e0)"><g clip-path="url(#19bee5ac0d)"><path fill="#ff7500" d="M 0 146.523438 L 0 0.46875 L 217.371094 0.46875 L 217.371094 146.523438 Z M 0 146.523438 " fill-opacity="1" fill-rule="nonzero"/></g></g></g></g></g></g><g clip-path="url(#40c4bbbd29)"><g clip-path="url(#dc49479e2b)"><g transform="matrix(1, 0, 0, 1, 32, 114)"><g clip-path="url(#80aeaa0a86)"><g clip-path="url(#99a329336d)"><g clip-path="url(#859cda029c)"><path fill="#0092d0" d="M 0.046875 146.523438 L 0.046875 0.46875 L 217.421875 0.46875 L 217.421875 146.523438 Z M 0.046875 146.523438 " fill-opacity="1" fill-rule="nonzero"/></g></g></g></g></g></g><g fill="#312e2d" fill-opacity="1"><g transform="translate(0.0000045, 184.707789)"><g><path d="M 44.6875 0 L 36.546875 0 L 36.546875 -28.15625 L 36.65625 -34.84375 L 36.4375 -34.84375 L 28.640625 0 L 20.09375 0 L 12.5 -34.84375 L 12.296875 -34.84375 L 12.390625 -28.15625 L 12.390625 0 L 4.25 0 L 4.25 -41.671875 L 16.984375 -41.671875 L 24.5 -8.8125 L 24.671875 -8.8125 L 32.0625 -41.671875 L 44.6875 -41.671875 Z M 44.6875 0 "/></g></g></g><g fill="#312e2d" fill-opacity="1"><g transform="translate(48.92695, 184.707789)"><g><path d="M 25.171875 -15.453125 C 25.171875 -18.398438 24.5625 -20.703125 23.34375 -22.359375 C 22.125 -24.023438 20.285156 -24.859375 17.828125 -24.859375 C 15.546875 -24.859375 13.75 -24.078125 12.4375 -22.515625 C 11.132812 -20.960938 10.484375 -18.609375 10.484375 -15.453125 C 10.484375 -12.347656 11.113281 -10 12.375 -8.40625 C 13.644531 -6.820312 15.460938 -6.03125 17.828125 -6.03125 C 20.265625 -6.03125 22.097656 -6.851562 23.328125 -8.5 C 24.554688 -10.144531 25.171875 -12.460938 25.171875 -15.453125 Z M 33.53125 -15.453125 C 33.53125 -10.398438 32.078125 -6.421875 29.171875 -3.515625 C 26.273438 -0.617188 22.492188 0.828125 17.828125 0.828125 C 13.234375 0.828125 9.46875 -0.613281 6.53125 -3.5 C 3.59375 -6.382812 2.125 -10.367188 2.125 -15.453125 C 2.125 -20.578125 3.59375 -24.566406 6.53125 -27.421875 C 9.46875 -30.273438 13.234375 -31.703125 17.828125 -31.703125 C 22.535156 -31.703125 26.328125 -30.238281 29.203125 -27.3125 C 32.085938 -24.394531 33.53125 -20.441406 33.53125 -15.453125 Z M 33.53125 -15.453125 "/></g></g></g><g fill="#312e2d" fill-opacity="1"><g transform="translate(84.587493, 184.707789)"><g><path d="M 3.96875 -30.90625 L 11.765625 -30.90625 L 11.765625 -25.546875 L 11.875 -25.546875 C 12.820312 -27.566406 13.96875 -29.097656 15.3125 -30.140625 C 16.65625 -31.179688 18.335938 -31.703125 20.359375 -31.703125 C 20.890625 -31.703125 21.410156 -31.660156 21.921875 -31.578125 L 21.921875 -23.328125 C 21.535156 -23.410156 20.757812 -23.453125 19.59375 -23.453125 C 17.0625 -23.453125 15.179688 -22.835938 13.953125 -21.609375 C 12.722656 -20.390625 12.109375 -18.546875 12.109375 -16.078125 L 12.109375 0 L 3.96875 0 Z M 3.96875 -30.90625 "/></g></g></g><g fill="#312e2d" fill-opacity="1"><g transform="translate(106.924917, 184.707789)"><g><path d="M 10.484375 -15.28125 C 10.484375 -12.6875 11.050781 -10.601562 12.1875 -9.03125 C 13.320312 -7.46875 14.898438 -6.6875 16.921875 -6.6875 C 19.148438 -6.6875 20.859375 -7.445312 22.046875 -8.96875 C 23.242188 -10.488281 23.84375 -12.707031 23.84375 -15.625 C 23.84375 -18.320312 23.203125 -20.503906 21.921875 -22.171875 C 20.648438 -23.835938 18.96875 -24.671875 16.875 -24.671875 C 15 -24.671875 13.460938 -23.882812 12.265625 -22.3125 C 11.078125 -20.738281 10.484375 -18.394531 10.484375 -15.28125 Z M 31.921875 -30.90625 L 31.921875 -0.765625 C 31.921875 3.898438 30.632812 7.289062 28.0625 9.40625 C 25.5 11.53125 21.578125 12.59375 16.296875 12.59375 C 12.503906 12.59375 9.34375 11.769531 6.8125 10.125 C 4.289062 8.476562 2.957031 6.207031 2.8125 3.3125 L 11.65625 3.3125 C 11.863281 5.394531 13.769531 6.4375 17.375 6.4375 C 21.644531 6.4375 23.78125 4.207031 23.78125 -0.25 L 23.78125 -4.359375 L 23.671875 -4.484375 C 22.097656 -1.378906 19.347656 0.171875 15.421875 0.171875 C 11.398438 0.171875 8.175781 -1.21875 5.75 -4 C 3.332031 -6.789062 2.125 -10.722656 2.125 -15.796875 C 2.125 -20.765625 3.328125 -24.65625 5.734375 -27.46875 C 8.148438 -30.289062 11.226562 -31.703125 14.96875 -31.703125 C 19.238281 -31.703125 22.253906 -29.90625 24.015625 -26.3125 L 24.125 -26.3125 L 24.125 -30.90625 Z M 31.921875 -30.90625 "/></g></g></g><g fill="#312e2d" fill-opacity="1"><g transform="translate(142.670501, 184.707789)"><g><path d="M 21.6875 -14.96875 C 20.6875 -14.269531 18.738281 -13.710938 15.84375 -13.296875 C 13.425781 -12.953125 11.84375 -12.40625 11.09375 -11.65625 C 10.351562 -10.914062 9.984375 -9.929688 9.984375 -8.703125 C 9.984375 -7.472656 10.378906 -6.546875 11.171875 -5.921875 C 11.960938 -5.296875 12.90625 -4.984375 14 -4.984375 C 16.082031 -4.984375 17.882812 -5.566406 19.40625 -6.734375 C 20.925781 -7.898438 21.6875 -9.347656 21.6875 -11.078125 Z M 29.625 -6.03125 C 29.625 -4.613281 29.753906 -3.503906 30.015625 -2.703125 C 30.285156 -1.898438 30.75 -1.40625 31.40625 -1.21875 L 31.40625 0 L 22.703125 0 C 22.328125 -1.039062 22.066406 -2.257812 21.921875 -3.65625 C 19.273438 -0.664062 15.832031 0.828125 11.59375 0.828125 C 8.664062 0.828125 6.304688 0.015625 4.515625 -1.609375 C 2.734375 -3.234375 1.84375 -5.425781 1.84375 -8.1875 C 1.84375 -10.832031 2.617188 -13.015625 4.171875 -14.734375 C 5.734375 -16.460938 8.066406 -17.550781 11.171875 -18 L 18.765625 -19.109375 C 19.804688 -19.253906 20.550781 -19.539062 21 -19.96875 C 21.457031 -20.394531 21.6875 -20.941406 21.6875 -21.609375 C 21.6875 -22.796875 21.25 -23.695312 20.375 -24.3125 C 19.507812 -24.925781 18.179688 -25.234375 16.390625 -25.234375 C 14.515625 -25.234375 13.144531 -24.890625 12.28125 -24.203125 C 11.425781 -23.523438 10.894531 -22.421875 10.6875 -20.890625 L 2.828125 -20.890625 C 3.234375 -24.648438 4.515625 -27.390625 6.671875 -29.109375 C 8.835938 -30.835938 12.289062 -31.703125 17.03125 -31.703125 C 20.851562 -31.703125 23.90625 -30.9375 26.1875 -29.40625 C 28.476562 -27.875 29.625 -25.660156 29.625 -22.765625 Z M 29.625 -6.03125 "/></g></g></g><g fill="#312e2d" fill-opacity="1"><g transform="translate(175.836507, 184.707789)"><g><path d="M 31.890625 0 L 23.765625 0 L 23.765625 -19.1875 C 23.765625 -20.988281 23.351562 -22.382812 22.53125 -23.375 C 21.71875 -24.363281 20.367188 -24.859375 18.484375 -24.859375 C 16.535156 -24.859375 14.984375 -24.21875 13.828125 -22.9375 C 12.679688 -21.664062 12.109375 -19.925781 12.109375 -17.71875 L 12.109375 0 L 3.96875 0 L 3.96875 -30.90625 L 11.765625 -30.90625 L 11.765625 -26.359375 L 11.875 -26.359375 C 13.820312 -29.921875 16.894531 -31.703125 21.09375 -31.703125 C 24.25 -31.703125 26.835938 -30.796875 28.859375 -28.984375 C 30.878906 -27.179688 31.890625 -24.644531 31.890625 -21.375 Z M 31.890625 0 "/></g></g></g><g fill="#312e2d" fill-opacity="1"><g transform="translate(0.0000045, 239.457786)"><g><path d="M 23.984375 -22.484375 L 41.390625 -22.484375 L 41.390625 0 L 35.578125 0 L 34.734375 -5.21875 C 31.515625 -1 27.117188 1.109375 21.546875 1.109375 C 15.972656 1.109375 11.410156 -0.878906 7.859375 -4.859375 C 4.316406 -8.835938 2.546875 -14.125 2.546875 -20.71875 C 2.546875 -27.320312 4.367188 -32.648438 8.015625 -36.703125 C 11.671875 -40.753906 16.644531 -42.78125 22.9375 -42.78125 C 28.320312 -42.78125 32.617188 -41.421875 35.828125 -38.703125 C 39.046875 -35.992188 40.84375 -32.675781 41.21875 -28.75 L 32.546875 -28.75 C 32.015625 -30.820312 30.910156 -32.476562 29.234375 -33.71875 C 27.566406 -34.957031 25.617188 -35.578125 23.390625 -35.578125 C 19.660156 -35.578125 16.734375 -34.242188 14.609375 -31.578125 C 12.484375 -28.910156 11.421875 -25.265625 11.421875 -20.640625 C 11.421875 -16.023438 12.445312 -12.472656 14.5 -9.984375 C 16.550781 -7.503906 19.570312 -6.265625 23.5625 -6.265625 C 25.8125 -6.265625 27.867188 -6.988281 29.734375 -8.4375 C 31.609375 -9.894531 32.925781 -12.234375 33.6875 -15.453125 L 23.984375 -15.453125 Z M 23.984375 -22.484375 "/></g></g></g><g fill="#312e2d" fill-opacity="1"><g transform="translate(45.355226, 239.457786)"><g><path d="M 31.640625 0 L 23.875 0 L 23.875 -4.359375 L 23.765625 -4.359375 C 21.703125 -0.898438 18.5625 0.828125 14.34375 0.828125 C 11.070312 0.828125 8.5 -0.132812 6.625 -2.0625 C 4.757812 -4 3.828125 -6.835938 3.828125 -10.578125 L 3.828125 -30.90625 L 11.96875 -30.90625 L 11.96875 -11.734375 C 11.96875 -9.765625 12.421875 -8.320312 13.328125 -7.40625 C 14.234375 -6.488281 15.535156 -6.03125 17.234375 -6.03125 C 19.066406 -6.03125 20.566406 -6.640625 21.734375 -7.859375 C 22.910156 -9.085938 23.5 -10.820312 23.5 -13.0625 L 23.5 -30.90625 L 31.640625 -30.90625 Z M 31.640625 0 "/></g></g></g><g fill="#312e2d" fill-opacity="1"><g transform="translate(80.959075, 239.457786)"><g><path d="M 12.109375 -34.5625 L 3.96875 -34.5625 L 3.96875 -42.09375 L 12.109375 -42.09375 Z M 12.109375 -30.90625 L 12.109375 0 L 3.96875 0 L 3.96875 -30.90625 Z M 12.109375 -30.90625 "/></g></g></g><g fill="#312e2d" fill-opacity="1"><g transform="translate(97.031832, 239.457786)"><g><path d="M 31.890625 0 L 23.765625 0 L 23.765625 -19.1875 C 23.765625 -20.988281 23.351562 -22.382812 22.53125 -23.375 C 21.71875 -24.363281 20.367188 -24.859375 18.484375 -24.859375 C 16.535156 -24.859375 14.984375 -24.21875 13.828125 -22.9375 C 12.679688 -21.664062 12.109375 -19.925781 12.109375 -17.71875 L 12.109375 0 L 3.96875 0 L 3.96875 -30.90625 L 11.765625 -30.90625 L 11.765625 -26.359375 L 11.875 -26.359375 C 13.820312 -29.921875 16.894531 -31.703125 21.09375 -31.703125 C 24.25 -31.703125 26.835938 -30.796875 28.859375 -28.984375 C 30.878906 -27.179688 31.890625 -24.644531 31.890625 -21.375 Z M 31.890625 0 "/></g></g></g><g fill="#312e2d" fill-opacity="1"><g transform="translate(131.303315, 239.457786)"><g><path d="M 20.890625 -0.515625 C 19.359375 3.867188 18.203125 6.789062 17.421875 8.25 C 16.648438 9.707031 15.707031 10.769531 14.59375 11.4375 C 13.476562 12.113281 11.597656 12.453125 8.953125 12.453125 C 7.597656 12.453125 6.367188 12.382812 5.265625 12.25 L 5.265625 5.8125 C 5.859375 5.882812 6.597656 5.921875 7.484375 5.921875 C 8.660156 5.921875 9.617188 5.675781 10.359375 5.1875 C 11.109375 4.695312 11.738281 3.410156 12.25 1.328125 L 0.796875 -30.90625 L 9.859375 -30.90625 L 16.46875 -8.140625 L 16.609375 -8.140625 L 22.9375 -30.90625 L 31.53125 -30.90625 Z M 20.890625 -0.515625 "/></g></g></g><g fill="#312e2d" fill-opacity="1"><g transform="translate(162.031397, 239.457786)"><g><path d="M 21.6875 -14.96875 C 20.6875 -14.269531 18.738281 -13.710938 15.84375 -13.296875 C 13.425781 -12.953125 11.84375 -12.40625 11.09375 -11.65625 C 10.351562 -10.914062 9.984375 -9.929688 9.984375 -8.703125 C 9.984375 -7.472656 10.378906 -6.546875 11.171875 -5.921875 C 11.960938 -5.296875 12.90625 -4.984375 14 -4.984375 C 16.082031 -4.984375 17.882812 -5.566406 19.40625 -6.734375 C 20.925781 -7.898438 21.6875 -9.347656 21.6875 -11.078125 Z M 29.625 -6.03125 C 29.625 -4.613281 29.753906 -3.503906 30.015625 -2.703125 C 30.285156 -1.898438 30.75 -1.40625 31.40625 -1.21875 L 31.40625 0 L 22.703125 0 C 22.328125 -1.039062 22.066406 -2.257812 21.921875 -3.65625 C 19.273438 -0.664062 15.832031 0.828125 11.59375 0.828125 C 8.664062 0.828125 6.304688 0.015625 4.515625 -1.609375 C 2.734375 -3.234375 1.84375 -5.425781 1.84375 -8.1875 C 1.84375 -10.832031 2.617188 -13.015625 4.171875 -14.734375 C 5.734375 -16.460938 8.066406 -17.550781 11.171875 -18 L 18.765625 -19.109375 C 19.804688 -19.253906 20.550781 -19.539062 21 -19.96875 C 21.457031 -20.394531 21.6875 -20.941406 21.6875 -21.609375 C 21.6875 -22.796875 21.25 -23.695312 20.375 -24.3125 C 19.507812 -24.925781 18.179688 -25.234375 16.390625 -25.234375 C 14.515625 -25.234375 13.144531 -24.890625 12.28125 -24.203125 C 11.425781 -23.523438 10.894531 -22.421875 10.6875 -20.890625 L 2.828125 -20.890625 C 3.234375 -24.648438 4.515625 -27.390625 6.671875 -29.109375 C 8.835938 -30.835938 12.289062 -31.703125 17.03125 -31.703125 C 20.851562 -31.703125 23.90625 -30.9375 26.1875 -29.40625 C 28.476562 -27.875 29.625 -25.660156 29.625 -22.765625 Z M 29.625 -6.03125 "/></g></g></g><g fill="#312e2d" fill-opacity="1"><g transform="translate(195.197403, 239.457786)"><g><path d="M 3.96875 -30.90625 L 11.765625 -30.90625 L 11.765625 -25.546875 L 11.875 -25.546875 C 12.820312 -27.566406 13.96875 -29.097656 15.3125 -30.140625 C 16.65625 -31.179688 18.335938 -31.703125 20.359375 -31.703125 C 20.890625 -31.703125 21.410156 -31.660156 21.921875 -31.578125 L 21.921875 -23.328125 C 21.535156 -23.410156 20.757812 -23.453125 19.59375 -23.453125 C 17.0625 -23.453125 15.179688 -22.835938 13.953125 -21.609375 C 12.722656 -20.390625 12.109375 -18.546875 12.109375 -16.078125 L 12.109375 0 L 3.96875 0 Z M 3.96875 -30.90625 "/></g></g></g><g fill="#312e2d" fill-opacity="1"><g transform="translate(217.534827, 239.457786)"><g><path d="M 10.484375 -15.21875 C 10.484375 -12.5 11.078125 -10.257812 12.265625 -8.5 C 13.460938 -6.75 15.09375 -5.875 17.15625 -5.875 C 19.4375 -5.875 21.207031 -6.679688 22.46875 -8.296875 C 23.726562 -9.910156 24.359375 -12.0625 24.359375 -14.75 C 24.359375 -18.03125 23.769531 -20.503906 22.59375 -22.171875 C 21.425781 -23.835938 19.6875 -24.671875 17.375 -24.671875 C 15.207031 -24.671875 13.515625 -23.835938 12.296875 -22.171875 C 11.085938 -20.503906 10.484375 -18.1875 10.484375 -15.21875 Z M 32.125 0 L 24.1875 0 L 24.1875 -3.890625 L 24.0625 -3.890625 C 22.195312 -0.742188 19.210938 0.828125 15.109375 0.828125 C 11.023438 0.828125 7.835938 -0.691406 5.546875 -3.734375 C 3.265625 -6.785156 2.125 -10.804688 2.125 -15.796875 C 2.125 -20.691406 3.320312 -24.566406 5.71875 -27.421875 C 8.125 -30.273438 11.195312 -31.703125 14.9375 -31.703125 C 18.90625 -31.703125 21.894531 -30.09375 23.90625 -26.875 L 24.015625 -26.875 L 24.015625 -41.671875 L 32.125 -41.671875 Z M 32.125 0 "/></g></g></g></svg>